<svg width="25" height="25" viewBox="0 0 25 25" fill="none" xmlns="http://www.w3.org/2000/svg">
<path d="M12.5002 22.9166C6.74719 22.9166 2.0835 18.2529 2.0835 12.5C2.0835 6.74701 6.74719 2.08331 12.5002 2.08331C18.2531 2.08331 22.9168 6.74701 22.9168 12.5C22.9168 18.2529 18.2531 22.9166 12.5002 22.9166ZM12.5002 20.8333C17.1026 20.8333 20.8335 17.1024 20.8335 12.5C20.8335 7.8976 17.1026 4.16665 12.5002 4.16665C7.89779 4.16665 4.16683 7.8976 4.16683 12.5C4.16683 17.1024 7.89779 20.8333 12.5002 20.8333ZM13.5418 12.5H17.7085V14.5833H11.4585V7.29165H13.5418V12.5Z" fill="white"/>
</svg>
