<svg width="25" height="24" viewBox="0 0 25 24" fill="none" xmlns="http://www.w3.org/2000/svg">
<path d="M18.7499 20.9789C18.7499 18.8622 17.8719 16.8321 16.3091 15.3354C14.7463 13.8386 12.6267 12.9977 10.4166 12.9977M10.4166 12.9977C8.20645 12.9977 6.08683 13.8386 4.52403 15.3354C2.96123 16.8321 2.08325 18.8622 2.08325 20.9789M10.4166 12.9977C13.2931 12.9977 15.6249 10.7644 15.6249 8.00944C15.6249 5.2545 13.2931 3.02118 10.4166 3.02118C7.5401 3.02118 5.20825 5.2545 5.20825 8.00944C5.20825 10.7644 7.5401 12.9977 10.4166 12.9977ZM22.9166 19.9813C22.9166 16.6192 20.8333 13.4965 18.7499 12.0001C19.4347 11.508 19.9823 10.8618 20.3443 10.1187C20.7062 9.37568 20.8713 8.55862 20.8249 7.73988C20.7786 6.92113 20.5222 6.12596 20.0785 5.42472C19.6348 4.72349 19.0175 4.13781 18.2812 3.71954" stroke="white" stroke-width="2" stroke-linecap="round" stroke-linejoin="round" />
</svg>
