<svg width="16" height="16" viewBox="0 0 16 16" fill="none" xmlns="http://www.w3.org/2000/svg">
<path fill-rule="evenodd" clip-rule="evenodd" d="M13.6214 1.52408C13.3948 1.52408 13.1775 1.6141 13.0172 1.77435L6.149 8.64333C6.05863 8.73355 5.99189 8.84551 5.95584 8.968C5.9558 8.96815 5.95589 8.96785 5.95584 8.968L5.51119 10.4888L7.03237 10.044C7.15513 10.0082 7.26714 9.94197 7.3576 9.85159C7.35759 9.8516 7.35761 9.85158 7.3576 9.85159L14.2256 2.98281C14.3859 2.82256 14.4759 2.60519 14.4759 2.37857C14.4759 2.15194 14.3859 1.9346 14.2256 1.77435C14.0654 1.6141 13.8481 1.52408 13.6214 1.52408ZM11.9395 0.696666C12.3856 0.250598 12.9906 0 13.6214 0C14.2523 0 14.8573 0.250598 15.3033 0.696666C15.7494 1.14273 16 1.74773 16 2.37857C16 3.0094 15.7494 3.6144 15.3033 4.06047L8.43511 10.9294C8.16369 11.2006 7.82812 11.3994 7.45982 11.507L5.27074 12.147C5.07402 12.2044 4.86501 12.2079 4.66652 12.1571C4.46802 12.1062 4.28684 12.003 4.14194 11.8581C3.99704 11.7132 3.89376 11.532 3.84291 11.3335C3.79205 11.135 3.79549 10.9265 3.85287 10.7297L4.49336 8.5391C4.60138 8.1712 4.80019 7.83639 5.0715 7.56546C5.07141 7.56555 5.07158 7.56538 5.0715 7.56546L11.9395 0.696666ZM0.669587 1.42882C1.09832 1.00009 1.6798 0.759234 2.28611 0.759234H7.62038C8.04125 0.759234 8.38242 1.10041 8.38242 1.52127C8.38242 1.94213 8.04125 2.28331 7.62038 2.28331H2.28611C2.08401 2.28331 1.89018 2.3636 1.74727 2.50651C1.60436 2.64942 1.52408 2.84324 1.52408 3.04535V13.7139C1.52408 13.916 1.60436 14.1098 1.74727 14.2527C1.89018 14.3956 2.08401 14.4759 2.28611 14.4759H12.9547C13.1568 14.4759 13.3506 14.3956 13.4935 14.2527C13.6364 14.1098 13.7167 13.916 13.7167 13.7139V8.37962C13.7167 7.95876 14.0579 7.61758 14.4787 7.61758C14.8996 7.61758 15.2408 7.95876 15.2408 8.37962V13.7139C15.2408 14.3202 14.9999 14.9017 14.5712 15.3304C14.1424 15.7591 13.561 16 12.9547 16H2.28611C1.6798 16 1.09832 15.7591 0.669587 15.3304C0.240858 14.9017 0 14.3202 0 13.7139V3.04535C0 2.43903 0.240858 1.85755 0.669587 1.42882Z" fill="black"/>
</svg>
