<svg width="17" height="17" viewBox="0 0 17 17" fill="none" xmlns="http://www.w3.org/2000/svg">
<path fill-rule="evenodd" clip-rule="evenodd" d="M1.0625 8.5C1.0625 10.4725 1.84609 12.3643 3.24089 13.7591C4.63569 15.1539 6.52745 15.9375 8.5 15.9375C10.4725 15.9375 12.3643 15.1539 13.7591 13.7591C15.1539 12.3643 15.9375 10.4725 15.9375 8.5C15.9375 6.52745 15.1539 4.63569 13.7591 3.24089C12.3643 1.84609 10.4725 1.0625 8.5 1.0625C6.52745 1.0625 4.63569 1.84609 3.24089 3.24089C1.84609 4.63569 1.0625 6.52745 1.0625 8.5ZM17 8.5C17 10.7543 16.1045 12.9163 14.5104 14.5104C12.9163 16.1045 10.7543 17 8.5 17C6.24566 17 4.08365 16.1045 2.48959 14.5104C0.895533 12.9163 0 10.7543 0 8.5C0 6.24566 0.895533 4.08365 2.48959 2.48959C4.08365 0.895533 6.24566 0 8.5 0C10.7543 0 12.9163 0.895533 14.5104 2.48959C16.1045 4.08365 17 6.24566 17 8.5ZM10.727 11.4782C10.776 11.5289 10.8346 11.5694 10.8994 11.5972C10.9643 11.6251 11.034 11.6397 11.1045 11.6404C11.175 11.641 11.245 11.6275 11.3103 11.6008C11.3756 11.5741 11.4349 11.5347 11.4848 11.4848C11.5347 11.4349 11.5741 11.3756 11.6008 11.3103C11.6275 11.245 11.641 11.175 11.6404 11.1045C11.6397 11.034 11.6251 10.9643 11.5972 10.8994C11.5694 10.8346 11.5289 10.776 11.4782 10.727L7.12619 6.375H10.0672C10.2081 6.375 10.3432 6.31903 10.4428 6.2194C10.5425 6.11977 10.5984 5.98465 10.5984 5.84375C10.5984 5.70285 10.5425 5.56773 10.4428 5.4681C10.3432 5.36847 10.2081 5.3125 10.0672 5.3125H5.84375C5.70285 5.3125 5.56773 5.36847 5.4681 5.4681C5.36847 5.56773 5.3125 5.70285 5.3125 5.84375V10.0672C5.3125 10.2081 5.36847 10.3432 5.4681 10.4428C5.56773 10.5425 5.70285 10.5984 5.84375 10.5984C5.98465 10.5984 6.11977 10.5425 6.2194 10.4428C6.31903 10.3432 6.375 10.2081 6.375 10.0672V7.12619L10.727 11.4782Z" fill="white"/>
</svg>
