<svg width="16" height="16" viewBox="0 0 16 16" fill="none" xmlns="http://www.w3.org/2000/svg">
<path fill-rule="evenodd" clip-rule="evenodd" d="M11.3659 10.6727C12.452 9.1232 13.2001 7.48996 13.2001 6C13.2001 3.42081 10.9461 1.2 8.0001 1.2C5.05409 1.2 2.8001 3.42081 2.8001 6C2.8001 7.48996 3.54816 9.1232 4.63435 10.6727C5.70251 12.1965 6.99415 13.4936 7.85416 14.2837C7.90459 14.33 7.95587 14.3451 8.0001 14.3451C8.04434 14.3451 8.09562 14.33 8.14602 14.2837C9.00602 13.4936 10.2977 12.1965 11.3659 10.6727ZM8.95786 15.1674C10.7431 13.5273 14.4001 9.71432 14.4001 6C14.4001 2.68629 11.5347 0 8.0001 0C4.46547 0 1.6001 2.68629 1.6001 6C1.6001 9.71432 5.25707 13.5273 7.04232 15.1674C7.59056 15.671 8.40962 15.671 8.95786 15.1674Z" fill="#FFB30F"/>
<path d="M10.4001 6.4C10.4001 7.72548 9.32562 8.8 8.0001 8.8C6.67462 8.8 5.6001 7.72548 5.6001 6.4C5.6001 5.07452 6.67462 4 8.0001 4C9.32562 4 10.4001 5.07452 10.4001 6.4Z" fill="#008CFF"/>
</svg>
