<?xml version="1.0" encoding="UTF-8"?>
<svg width="24px" height="24px" viewBox="0 0 24 24" version="1.1" xmlns="http://www.w3.org/2000/svg">
    <title>Male Icon</title>
    <g id="Male-Icon" stroke="none" stroke-width="1" fill="none" fill-rule="evenodd">
        <path d="M12,2 C13.1,2 14,2.9 14,4 C14,5.1 13.1,6 12,6 C10.9,6 10,5.1 10,4 C10,2.9 10.9,2 12,2 Z M16.39,5.56 L15.39,9.67 C15.2,10.39 14.54,10.9 13.8,10.9 L10.2,10.9 C9.46,10.9 8.8,10.39 8.61,9.67 L7.61,5.56 C7.33,4.5 8.13,3.5 9.2,3.5 C9.38,3.5 9.55,3.54 9.72,3.61 L10.5,3.95 C11.45,4.36 12.55,4.36 13.5,3.95 L14.28,3.61 C14.45,3.54 14.62,3.5 14.8,3.5 C15.87,3.5 16.67,4.5 16.39,5.56 Z M14,12 L10,12 C7.33,12 2,13.34 2,16 L2,22 L22,22 L22,16 C22,13.34 16.67,12 14,12 Z" id="Shape" fill="#0066CC" fill-rule="nonzero"></path>
    </g>
</svg>