<svg width="14" height="18" viewBox="0 0 14 18" fill="none" xmlns="http://www.w3.org/2000/svg">
<path d="M3.08032 9.85712H8.00889V11.0893H3.08032V9.85712Z" fill="white"/>
<path d="M3.08032 6.77679H10.4732V8.00894H3.08032V6.77679Z" fill="white"/>
<path d="M3.08032 12.9375H6.16068V14.1696H3.08032V12.9375Z" fill="white"/>
<path d="M12.3214 1.84821H10.4732V1.23214C10.4732 0.905358 10.3434 0.591958 10.1123 0.360886C9.88126 0.129815 9.56786 0 9.24107 0H4.3125C3.98572 0 3.67232 0.129815 3.44124 0.360886C3.21017 0.591958 3.08036 0.905358 3.08036 1.23214V1.84821H1.23214C0.905358 1.84821 0.591958 1.97803 0.360886 2.2091C0.129815 2.44017 0 2.75357 0 3.08036V16.0179C0 16.3446 0.129815 16.658 0.360886 16.8891C0.591958 17.1202 0.905358 17.25 1.23214 17.25H12.3214C12.6482 17.25 12.9616 17.1202 13.1927 16.8891C13.4238 16.658 13.5536 16.3446 13.5536 16.0179V3.08036C13.5536 2.75357 13.4238 2.44017 13.1927 2.2091C12.9616 1.97803 12.6482 1.84821 12.3214 1.84821ZM4.3125 1.23214H9.24107V3.69643H4.3125V1.23214ZM12.3214 16.0179H1.23214V3.08036H3.08036V4.92857H10.4732V3.08036H12.3214V16.0179Z" fill="white"/>
</svg>
