<svg width="34" height="32" viewBox="0 0 34 32" fill="none" xmlns="http://www.w3.org/2000/svg">
<path d="M25.6381 9.86011C25.5386 9.83413 25.4478 9.81896 25.3635 9.78534C25.1694 9.70846 25.0754 9.39372 25.1885 9.2198C25.2423 9.13642 25.456 9.13478 25.5713 9.21278C25.6311 9.25288 25.6599 9.34277 25.7681 9.30487C25.9024 9.25775 25.9823 9.17378 25.9927 9.03672C26.0198 8.67973 26.0492 8.32333 26.0606 7.9658C26.0709 7.62886 26.0655 7.29137 26.0557 6.95443C26.0519 6.82767 26.0992 6.76703 26.2189 6.75131C26.3113 6.73882 26.4037 6.72748 26.4983 6.69607C26.4695 6.6852 26.4407 6.67385 26.4119 6.66354C26.1041 6.55361 25.9258 6.31363 25.9067 5.98643C25.8856 5.6365 25.9649 5.30931 26.1351 5.00326C26.1656 4.94854 26.1938 4.89277 26.2216 4.83696C26.2265 4.82666 26.2254 4.81312 26.2308 4.77303C26.1623 4.77845 26.0976 4.77193 26.0389 4.78929C25.7502 4.87217 25.4614 4.9556 25.1759 5.04932C24.4577 5.28548 23.7573 5.25892 23.0445 4.99136C22.5224 4.79581 21.9809 4.6371 21.4355 4.52443C20.3051 4.29092 19.2562 4.56288 18.2725 5.12892C18.2323 5.15224 18.2084 5.21613 18.1932 5.26598C18.1801 5.30822 18.1855 5.35751 18.191 5.40249C18.21 5.56173 18.1372 5.66521 17.999 5.73346C17.9773 5.74376 17.9566 5.75674 17.9256 5.77465C17.9523 5.8039 17.9724 5.82773 17.9947 5.84993C18.1486 6.00269 18.1491 6.00375 17.9871 6.15437C17.9414 6.19662 17.8908 6.23452 17.8392 6.26924C17.7908 6.30173 17.7386 6.3272 17.6788 6.36128C17.7723 6.42088 17.8609 6.47236 17.9447 6.53137C18.0588 6.61156 18.1127 6.70801 18.1116 6.86453C18.1034 8.9923 18.1056 11.1201 18.1051 13.2479C18.1034 17.6497 18.1023 22.051 18.098 26.4528C18.098 26.5693 18.1317 26.6402 18.2247 26.7112C18.3797 26.8298 18.5199 26.968 18.6646 27.0996C18.75 27.1771 18.7412 27.254 18.6651 27.3374C18.5602 27.4533 18.4623 27.5757 18.3726 27.6819C18.6151 27.6933 18.8967 27.7041 19.1784 27.7209C20.0968 27.7751 21.013 27.8542 21.9108 28.0676C22.125 28.1185 22.3349 28.1928 22.5404 28.2729C22.7209 28.3434 22.8645 28.4549 22.8194 28.6851C22.8155 28.7041 22.8232 28.7252 22.8259 28.7518C22.9064 28.7659 22.9847 28.7756 23.0608 28.7929C23.43 28.8769 23.6393 29.1532 23.6339 29.5334C23.6295 29.8666 23.6257 30.1997 23.6355 30.5329C23.6415 30.7274 23.5665 30.8747 23.4001 30.9527C23.1668 31.0615 22.927 31.1645 22.6801 31.2328C22.0097 31.418 21.3192 31.4917 20.6281 31.5534C19.0604 31.6932 17.4895 31.7083 15.9181 31.6525C14.7154 31.6092 13.5137 31.5334 12.3332 31.2815C12.0412 31.2192 11.7563 31.1152 11.4752 31.0128C11.2283 30.9229 11.0994 30.7517 11.1157 30.4668C11.1353 30.1304 11.1114 29.7924 11.1179 29.4554C11.1233 29.1927 11.2658 29.0074 11.498 28.8969C11.6056 28.8455 11.7253 28.8146 11.8427 28.7897C11.9091 28.7761 11.9466 28.7545 11.9325 28.6879C11.8846 28.462 12.032 28.3726 12.2016 28.3C12.7095 28.0833 13.2472 27.9837 13.7883 27.8975C14.5946 27.7697 15.407 27.7101 16.2221 27.6846C16.2705 27.683 16.3194 27.6781 16.3961 27.6727C16.2982 27.5633 16.215 27.4739 16.1356 27.3807C15.998 27.2193 15.9942 27.2123 16.1329 27.0601C16.2732 26.9062 16.4281 26.7654 16.569 26.6126C16.6092 26.5693 16.637 26.5037 16.6451 26.4447C16.6582 26.3548 16.6484 26.2621 16.6484 26.1706C16.6484 19.7618 16.6505 13.3535 16.6413 6.94467C16.6407 6.66246 16.7517 6.51241 16.98 6.40407C16.9947 6.39704 17.0078 6.38675 17.0214 6.377C17.0241 6.37481 17.0246 6.36943 17.023 6.37431C16.9159 6.28597 16.8109 6.20094 16.7076 6.11373C16.619 6.03791 16.6261 5.96096 16.7082 5.883C16.7435 5.84937 16.7751 5.81096 16.8142 5.76923C16.7952 5.75624 16.7838 5.74485 16.7702 5.73889C16.6158 5.66899 16.5304 5.55471 16.5597 5.38244C16.5885 5.21395 16.5097 5.1322 16.3667 5.05689C15.681 4.69666 14.9627 4.45833 14.1798 4.44533C13.6056 4.43609 13.0499 4.54444 12.5056 4.7178C12.1592 4.8283 11.8117 4.93555 11.4719 5.06231C10.9211 5.26708 10.3692 5.26866 9.81129 5.10728C9.45024 5.00326 9.09028 4.89546 8.72924 4.79307C8.66779 4.77576 8.60091 4.77627 8.50248 4.76437C8.54165 4.84779 8.56338 4.90357 8.59331 4.95505C8.75751 5.23837 8.84939 5.54224 8.8532 5.86943C8.85755 6.30496 8.68845 6.53519 8.25183 6.71558C8.33337 6.72475 8.41549 6.72966 8.49651 6.74374C8.6841 6.77572 8.69878 6.80061 8.70097 6.98641C8.70694 7.5736 8.71455 8.16026 8.72597 8.74694C8.72814 8.85037 8.75044 8.95331 8.76404 9.05622C8.78143 9.19329 8.87278 9.2675 8.9935 9.30924C9.02232 9.31895 9.06581 9.30596 9.09572 9.29079C9.12833 9.27401 9.1501 9.23934 9.18054 9.21766C9.2844 9.14398 9.41055 9.12393 9.51169 9.18408C9.56715 9.21711 9.59541 9.3287 9.6014 9.4078C9.61881 9.65266 9.51277 9.77723 9.2681 9.82438C9.21969 9.83413 9.1702 9.8417 9.10496 9.85254C9.11855 9.89966 9.12888 9.94189 9.14356 9.98199C10.2033 12.9017 11.2604 15.8226 12.3256 18.7402C12.8764 20.2498 13.4435 21.7536 14.0003 23.2612C14.0335 23.3516 14.0797 23.3895 14.1749 23.4047C14.4592 23.4496 14.7414 23.5071 15.0242 23.5612C15.0688 23.5699 15.1128 23.5851 15.1547 23.6029C15.2265 23.6333 15.2531 23.6756 15.2189 23.7595C15.0938 24.0639 14.8801 24.3044 14.6544 24.5325C13.6066 25.5921 12.3392 26.2822 10.9184 26.7079C9.80749 27.0406 8.66834 27.1711 7.51232 27.1267C5.59072 27.0536 3.83169 26.4994 2.30376 25.306C1.84158 24.9453 1.42019 24.5412 1.09285 24.0499C0.858501 23.6977 0.900352 23.5748 1.30328 23.4561C1.47946 23.4041 1.65836 23.3603 1.83887 23.3272C1.93458 23.3099 1.97807 23.2676 2.01123 23.1788C2.59684 21.5927 3.1928 20.011 3.77244 18.4227C4.80065 15.607 5.81965 12.7874 6.84244 9.96955C6.85765 9.9273 6.87071 9.88393 6.88864 9.82921C6.81469 9.81623 6.74999 9.80757 6.68637 9.7924C6.47704 9.7431 6.39764 9.61579 6.42591 9.3796C6.45584 9.1299 6.53901 9.08389 6.76847 9.19004C6.78752 9.1987 6.80817 9.20572 6.82447 9.21766C7.04035 9.38018 7.24808 9.23502 7.28668 8.98365C7.38508 8.34338 7.39542 7.69875 7.40685 7.05361C7.41229 6.77299 7.4112 6.77245 7.69775 6.73016C7.71296 6.72748 7.7271 6.72151 7.7543 6.7134C7.72872 6.6852 7.71461 6.65439 7.69176 6.64569C7.48785 6.56928 7.40413 6.38949 7.31277 6.21611C7.27742 6.15004 7.25187 6.07692 7.20728 6.01786C7.13552 5.92305 7.17357 5.8635 7.25784 5.81688C7.34159 5.77032 7.4275 5.72695 7.51614 5.69177C7.62869 5.6468 7.7222 5.63705 7.78909 5.78276C7.85435 5.92629 8.00986 5.99891 8.09957 5.96638C8.19582 5.9312 8.23332 5.82445 8.21647 5.63869C8.19799 5.44149 8.10284 5.28334 7.95982 5.1533C7.87663 5.07748 7.788 5.00704 7.69883 4.93879C7.60313 4.86512 7.55092 4.87869 7.48949 4.98594C7.35736 5.21563 7.30733 5.23076 7.10776 5.04172C6.98217 4.92307 6.88048 4.7779 6.7788 4.6371C6.71519 4.54986 6.7228 4.4426 6.80762 4.37653C6.96696 4.25301 7.13714 4.14252 7.30951 4.03685C7.33505 4.02168 7.40141 4.05855 7.44054 4.08397C7.47264 4.10457 7.4922 4.14412 7.49819 4.15169C7.67219 4.04392 7.82662 3.93178 7.99463 3.8489C8.21377 3.7411 8.43561 3.75463 8.65583 3.87329C8.91246 4.01143 9.17075 4.15169 9.43991 4.26221C9.92222 4.45941 10.3985 4.43937 10.8645 4.18425C11.2854 3.95347 11.7133 3.73514 12.144 3.52226C13.2048 2.99896 14.3081 2.97299 15.4277 3.28446C15.8077 3.39063 16.1731 3.54827 16.5581 3.68692C16.5581 3.53525 16.5641 3.3668 16.5565 3.1994C16.5494 3.04885 16.5869 2.93074 16.7278 2.85379C16.756 2.83866 16.7702 2.79042 16.7816 2.75415C16.7903 2.72759 16.78 2.69561 16.7838 2.66745C16.8115 2.47625 16.7783 2.32945 16.551 2.28448C16.5021 2.27472 16.4401 2.19728 16.4358 2.14688C16.4319 2.10896 16.5043 2.04938 16.5554 2.025C16.6413 1.98386 16.7381 1.9665 16.8273 1.93186C16.8708 1.91505 16.9409 1.88366 16.9425 1.85491C16.9469 1.77581 16.9866 1.68482 16.8854 1.61984C16.6864 1.49144 16.5418 1.31594 16.4798 1.08352C16.3895 0.742291 16.5374 0.387991 16.8637 0.166458C17.5341 -0.289131 18.259 0.277498 18.2965 0.820804C18.3209 1.16699 18.1567 1.42429 17.8799 1.60845C17.769 1.68213 17.7984 1.77367 17.8071 1.85978C17.8104 1.89068 17.8887 1.91938 17.9365 1.93943C18.0442 1.98386 18.1594 2.01255 18.2617 2.06669C18.3574 2.11709 18.3557 2.18861 18.2644 2.24872C18.2029 2.2899 18.1323 2.32079 18.0616 2.34408C17.9931 2.36627 17.9697 2.40422 17.9751 2.47244C17.98 2.53043 17.9784 2.58948 17.9756 2.64743C17.9702 2.75415 17.9778 2.8419 18.0904 2.90961C18.1464 2.9432 18.1806 3.04717 18.1855 3.12249C18.1986 3.31262 18.1899 3.5044 18.1899 3.71946C18.241 3.69668 18.2769 3.68259 18.3111 3.66528C19.3182 3.17393 20.3741 2.97677 21.4883 3.14955C21.9597 3.22272 22.3947 3.40685 22.8172 3.62141C23.1412 3.78553 23.4702 3.94263 23.7807 4.13058C24.4022 4.50598 25.0139 4.44369 25.6294 4.13058C25.7741 4.05639 25.9138 3.97187 26.0585 3.89711C26.4472 3.69508 26.9013 3.79149 27.184 4.13277C27.1943 4.14521 27.2058 4.15711 27.2221 4.175C27.2427 4.15874 27.2705 4.14794 27.2781 4.12894C27.3357 3.99189 27.4347 4.00218 27.5309 4.06885C27.6805 4.17176 27.8289 4.27957 27.9605 4.40309C27.9996 4.44042 28.0089 4.55041 27.9844 4.60622C27.886 4.83262 27.7256 5.01301 27.5092 5.13759C27.3977 5.20205 27.3482 5.1804 27.2944 5.0634C27.2754 5.02225 27.2623 4.97128 27.2297 4.94475C27.1976 4.91823 27.1269 4.89331 27.1035 4.90957C26.8632 5.08235 26.6082 5.24975 26.5489 5.57098C26.5326 5.66197 26.5353 5.76271 26.556 5.8532C26.5837 5.9729 26.7033 6.01459 26.8007 5.94146C26.8724 5.88783 26.9426 5.82121 26.9866 5.74485C27.0285 5.67171 27.0774 5.64192 27.1465 5.66899C27.2775 5.71993 27.4069 5.77734 27.5293 5.84614C27.5581 5.8624 27.5793 5.9431 27.5646 5.97726C27.5124 6.09911 27.445 6.21502 27.3798 6.33152C27.308 6.45988 27.2275 6.58066 27.0791 6.63649C27.0508 6.64678 27.0296 6.67603 26.9861 6.71235C27.0666 6.72748 27.1242 6.7405 27.1829 6.74967C27.2949 6.76703 27.3412 6.82443 27.345 6.94417C27.3618 7.481 27.3846 8.01728 27.4146 8.55353C27.4232 8.71874 27.4608 8.88286 27.4847 9.04702C27.5114 9.23228 27.7239 9.3677 27.8996 9.23337C27.9126 9.22363 27.9289 9.21766 27.9442 9.21005C28.1513 9.10553 28.2378 9.10985 28.2878 9.22631C28.3928 9.46845 28.3297 9.70628 28.1383 9.77075C28.0524 9.79996 27.9605 9.8119 27.8577 9.83463C27.8713 9.87906 27.8833 9.92189 27.8979 9.96303C29.1198 13.3156 30.3399 16.6687 31.5639 20.0201C31.9576 21.0998 32.3627 22.1751 32.7591 23.2535C32.7927 23.3462 32.8379 23.3906 32.9407 23.4063C33.2288 23.4507 33.5165 23.5043 33.8014 23.5661C34.0146 23.6116 34.0526 23.6745 33.9324 23.8564C33.7688 24.1056 33.5904 24.3521 33.3811 24.5634C32.3855 25.5688 31.1816 26.2339 29.8386 26.6592C28.7582 27.0016 27.6484 27.1456 26.5158 27.131C25.0775 27.1126 23.7046 26.8185 22.4181 26.1668C21.4796 25.6912 20.6498 25.0758 19.9957 24.2448C19.8913 24.1121 19.8075 23.9605 19.7336 23.8077C19.6711 23.6777 19.7037 23.5954 19.8478 23.5434C20.0702 23.4632 20.2985 23.3917 20.5302 23.344C20.6737 23.3142 20.7444 23.2584 20.7966 23.1176C21.8156 20.3512 22.8471 17.5895 23.8628 14.822C24.4539 13.2121 25.0221 11.5936 25.6006 9.97875C25.6142 9.94029 25.6251 9.90129 25.6381 9.86011ZM2.10259 23.2606C2.15153 23.2606 2.18796 23.2638 2.22383 23.2601C3.01717 23.1804 3.80886 23.0715 4.60437 23.0266C5.6636 22.9659 6.72552 22.9551 7.78582 22.9237C7.99843 22.9172 7.9767 22.9431 7.97615 22.7373C7.97343 20.3479 7.97071 17.9579 7.96691 15.5685C7.96364 13.7906 7.95873 12.0128 7.9571 10.2355C7.9571 10.1418 7.94841 10.086 7.83368 10.0643C7.77279 10.0524 7.69775 9.97278 7.67925 9.90886C7.61346 9.68135 7.68143 9.456 7.72872 9.23228C7.73199 9.2182 7.74941 9.20736 7.75701 9.19273C7.78637 9.13801 7.83586 9.0833 7.83965 9.02643C7.85271 8.80271 7.85163 8.5774 7.85381 8.35254C7.85435 8.31841 7.84238 8.28378 7.83586 8.24962L7.8016 8.23554C7.76789 8.27673 7.71948 8.313 7.70264 8.36016C7.67272 8.44522 7.65424 8.53675 7.64445 8.6267C7.6216 8.83794 7.6102 9.04976 7.58682 9.26099C7.55636 9.5432 7.40086 9.72902 7.1317 9.78915C7.03655 9.81029 7.00337 9.8612 6.97455 9.9408C5.49883 13.9835 4.02201 18.0267 2.54465 22.0689C2.40056 22.4632 2.25265 22.8565 2.10259 23.2606ZM26.9317 8.24369C26.9192 8.26428 26.9078 8.27458 26.9072 8.28542C26.9051 8.45115 26.892 8.61854 26.9072 8.78325C26.9214 8.93544 26.8436 9.12284 27.0405 9.22253C27.0937 9.46196 27.1693 9.70195 27.0818 9.94572C27.0628 9.99825 26.9926 10.0578 26.9382 10.0665C26.836 10.0833 26.8126 10.125 26.8126 10.2214C26.8077 14.406 26.7996 18.5906 26.7925 22.7752C26.7925 22.8202 26.7963 22.8646 26.799 22.9188C28.7663 22.9551 30.7113 23.1241 32.6737 23.3624C32.6509 23.2974 32.6351 23.2476 32.6171 23.1994C32.3148 22.383 32.0114 21.5678 31.7102 20.7515C30.7629 18.1849 29.8136 15.62 28.8718 13.0518C28.4966 12.0274 28.1388 10.9971 27.7772 9.96791C27.7414 9.86501 27.6968 9.80214 27.5815 9.77558C27.383 9.73011 27.2552 9.59415 27.1992 9.39969C27.1753 9.31626 27.1655 9.2285 27.1563 9.14184C27.134 8.92673 27.1209 8.71063 27.0926 8.49612C27.0796 8.39701 27.0639 8.28652 26.9317 8.24369ZM8.0887 10.0199V22.9193C10.0478 22.9594 11.9716 23.1268 13.9084 23.3619C13.891 23.3061 13.8807 23.2671 13.8671 23.2297C13.6692 22.6945 13.4691 22.1604 13.2733 21.6247C11.8525 17.7391 10.4328 13.853 9.0147 9.96576C8.98371 9.88124 8.94347 9.83413 8.85701 9.79782C8.76077 9.75772 8.65366 9.69544 8.602 9.61146C8.53294 9.49933 8.49759 9.36013 8.47586 9.22795C8.43399 8.9739 8.41659 8.71605 8.37851 8.46089C8.36602 8.37533 8.34426 8.27891 8.21919 8.2426C8.20616 8.29244 8.18331 8.33847 8.18439 8.38398C8.18875 8.64128 8.15287 8.91106 8.22084 9.15158C8.29314 9.40616 8.28336 9.64992 8.28009 9.90129C8.27901 9.97985 8.24039 10.0253 8.1534 10.0156C8.12566 10.0129 8.09685 10.0194 8.0887 10.0199ZM26.5147 8.22962C26.4777 8.27185 26.4358 8.30165 26.419 8.34174C26.3891 8.41378 26.3635 8.49069 26.3537 8.56815C26.3233 8.81191 26.3021 9.05622 26.2754 9.30054C26.2488 9.55082 26.1275 9.7339 25.8785 9.80811C25.7947 9.83304 25.7589 9.87637 25.7322 9.95328C25.4696 10.7035 25.2113 11.4554 24.9367 12.2018C23.6622 15.672 22.3827 19.1405 21.1049 22.6095C21.0261 22.8235 20.9472 23.0374 20.8733 23.2378C21.8406 23.1576 22.8036 23.058 23.7687 23.0028C24.7344 22.9475 25.7023 22.9372 26.6892 22.9063V10.0269C26.4771 9.98959 26.4728 9.9901 26.4646 9.7415C26.4576 9.5432 26.494 9.35203 26.5337 9.15483C26.5891 8.87584 26.5527 8.57848 26.5538 8.28866C26.5544 8.27567 26.5369 8.2621 26.5147 8.22962ZM26.9328 7.05899C26.7126 7.12615 26.6218 7.11804 26.5239 7.02486C26.5032 7.345 26.5087 7.3526 26.7593 7.34882C26.9513 7.34558 26.9605 7.33092 26.9328 7.05899ZM7.79289 7.05143C7.81573 7.16137 7.8152 7.30546 7.85435 7.31684C7.96254 7.34882 8.0974 7.35151 8.20071 7.31196C8.24257 7.2957 8.23008 7.13973 8.24421 7.02974C8.09305 7.14078 7.962 7.09854 7.79289 7.05143Z" fill="white"/>
</svg>
