
<svg width="93" height="93" viewBox="0 0 93 93" fill="none" xmlns="http://www.w3.org/2000/svg">
<circle cx="46.5" cy="46.5" r="46.5" fill="#0BA241" fill-opacity="0.1"/>
<circle cx="46.5" cy="46.5" r="39.5" fill="#0BA241" fill-opacity="0.15"/>
<circle cx="46.5" cy="46.5" r="33.5" fill="#0BA241"/>
<path d="M50.7697 32.999C48.9927 31.2219 48.1042 30.3334 47 30.3334C45.8959 30.3334 45.0074 31.2219 43.2303 32.999C42.1639 34.0654 41.1072 34.5605 39.5868 34.5605C38.2594 34.5605 36.3708 34.303 35.3334 35.3491C34.3042 36.3869 34.5605 38.2678 34.5605 39.5868C34.5605 41.1072 34.0654 42.1639 32.999 43.2303C31.2219 45.0074 30.3334 45.8959 30.3334 47C30.3334 48.104 31.2219 48.9927 32.999 50.7697C34.1936 51.9644 34.5605 52.7357 34.5605 54.4132C34.5605 55.7407 34.3031 57.6294 35.3492 58.6667C36.387 59.6959 38.2678 59.4395 39.5868 59.4395C41.2059 59.4395 41.9855 59.7562 43.141 60.9117C44.1249 61.8957 45.4439 63.6667 47 63.6667C48.5562 63.6667 49.8752 61.8957 50.859 60.9117C52.0145 59.7562 52.7942 59.4395 54.4132 59.4395C55.7322 59.4395 57.613 59.6959 58.6509 58.6667M58.6509 58.6667C59.697 57.6294 59.4395 55.7407 59.4395 54.4132C59.4395 52.7357 59.8064 51.9644 61.001 50.7697C62.7782 48.9927 63.6667 48.104 63.6667 47C63.6667 45.8959 62.7782 45.0074 61.001 43.2303M58.6509 58.6667H58.6667" stroke="#EBEBEB" stroke-width="2" stroke-linecap="round" stroke-linejoin="round"/>
<path d="M41.1666 42.8333L47 48.6667L62.0003 32" stroke="#EBEBEB" stroke-width="2" stroke-linecap="round" stroke-linejoin="round"/>
</svg>
