<svg width="18" height="18" viewBox="0 0 18 18" fill="none" xmlns="http://www.w3.org/2000/svg">
<path d="M13.5 14.0312C13.5 12.8165 12.6212 11.25 11.25 11.25H6.75C5.37879 11.25 4.5 12.8165 4.5 14.0312M2.25 9C2.25 5.27208 5.27208 2.25 9 2.25C12.728 2.25 15.75 5.27208 15.75 9C15.75 12.728 12.728 15.75 9 15.75C5.27208 15.75 2.25 12.728 2.25 9ZM11.25 6.75C11.25 7.99268 10.2427 9 9 9C7.75732 9 6.75 7.99268 6.75 6.75C6.75 5.50736 7.75732 4.5 9 4.5C10.2427 4.5 11.25 5.50736 11.25 6.75Z" stroke="#FFB30F"/>
</svg>
